<?xml version="1.0" standalone="no"?><!DOCTYPE svg PUBLIC "-//W3C//DTD SVG 1.1//EN" "http://www.w3.org/Graphics/SVG/1.1/DTD/svg11.dtd"><svg t="1728632040584" class="icon" viewBox="0 0 1024 1024" version="1.1" xmlns="http://www.w3.org/2000/svg" p-id="5191" xmlns:xlink="http://www.w3.org/1999/xlink" width="64" height="64"><path d="M323.626667 443.093333v11.52h71.466666l1.92-21.333333-34.773333 4.053333-38.613333 5.76zM205.653333 439.253333l-29.013333 3.84 2.133333 11.52h67.626667l-1.92-21.333333-38.826667 5.973333zM362.24 491.306667l-42.453333-15.36-7.68 21.12 50.133333-1.92h50.346667l-5.76-19.2-38.613334 17.28-5.973333-1.92zM805.76 618.666667l13.44 1.92 17.493333-61.866667s-17.493333 5.76-30.933333 11.52-21.333333 9.6-21.333333 9.6l-9.6 34.986667zM194.133333 479.786667l-23.253333 9.6-3.84 13.653333 38.613333-5.973333 25.173334-3.84 13.653333-11.52-38.826667-1.92H194.133333z" p-id="5192" fill="#1296db"></path><path d="M784 67.2h-554.666667a170.666667 170.666667 0 0 0-170.666666 170.666667v554.666666a170.666667 170.666667 0 0 0 170.666666 170.666667h554.666667a170.666667 170.666667 0 0 0 170.666667-170.666667v-554.666666a170.666667 170.666667 0 0 0-170.666667-170.666667zM453.12 518.4l-40.533333 1.92-1.92 5.76-48-1.92-34.773334-1.92-9.6-3.84-7.68 13.653333 52.053334 5.76 90.88 5.76-15.36 59.946667s-5.76 23.253333-9.6 42.666667-9.813333 54.186667-9.813334 54.186666L362.666667 692.48l-36.693334-5.76-119.893333 13.44-31.36 3.84-40.533333-52.266667 71.466666-1.92 143.146667-3.84-11.52-15.36-131.626667 1.92h-40.533333l-21.333333-38.613333 61.866666-2.133333 145.066667-3.84 3.84-19.2-150.826667 5.76-56.106666 1.493333-21.333334-27.093333 61.866667-13.44H256l-1.92-21.333334-32.853333 11.52-13.653334 3.84-23.04 3.84-15.573333-21.333333-38.613333 17.28-29.013334-130.773333h145.066667l-1.92-13.44L205.653333 384l-36.693333-1.92L136.106667 341.333333l69.546666-5.76 157.013334-12.373333 25.173333-1.92 52.266667 56.106667-75.946667 6.613333-32.853333 1.92-7.68 15.36 39.04-2.773333 121.813333-3.84z m331.306667-16.64l21.333333-19.413333 29.013333-27.093334L904.32 533.333333l-48.426667 23.253334L908.16 661.333333l-102.4 30.933334-65.92 19.413333-48.213333-79.36-29.013334 3.84-17.493333 52.266667-44.373333 30.933333h-1.92l-17.493334-125.653333-65.706666 9.6 46.506666-75.306667 21.333334 13.44-23.04 17.493333 15.36 13.44 19.413333-13.44 3.84 27.093334 1.92-1.92 11.52-9.813334v-26.24l27.52-17.28-1.92 38.613334-25.173333 15.573333 11.733333 17.28 19.2-15.36 1.92 29.013333 19.413333-4.053333 3.84-21.333333 13.653334 11.52 3.84-17.28-19.413334-19.413334-4.48-32 29.013334 19.413334 1.92 24.96 17.493333 7.893333 1.92-21.333333 23.04 9.6 7.893333-17.28-25.173333-11.733334 19.2-13.44-15.36-9.6-19.413333 13.44-32.853334-19.413333 33.706667-17.92 25.173333 17.28 11.52-15.36-21.333333-9.6 29.013333-15.573333-15.573333-17.493334-19.2 9.813334-1.92-23.253334-19.413333 7.68v25.173334l-27.093334 19.413333V465.066667l29.013334-21.333334-8.32-17.066666-23.253334 13.653333 1.92-27.093333-21.333333 3.84-1.92 21.333333-19.2-9.6-5.973333 15.36 27.093333 19.413333v34.773334l-34.773333-19.413334 1.92-30.933333H597.333333l-40.533333-9.6-36.906667-48.426667 81.28-17.28 9.6-1.92 38.826667-58.026666 46.293333 64 36.693334-7.68 23.253333-56.106667 50.346667 34.773333 9.6 29.013334 96.64 1.92-34.773334 61.866666-59.946666 3.84-11.52 21.333334-1.92 3.84-27.093334 11.52z m-214.613334 11.52l5.76-9.6 21.333334-7.68h1.92l29.013333 19.2-27.093333 13.653333z" p-id="5193" fill="#1296db"></path></svg>